<?xml version="1.0" standalone="no"?>
<!DOCTYPE svg PUBLIC "-//W3C//DTD SVG 20010904//EN"
 "http://www.w3.org/TR/2001/REC-SVG-20010904/DTD/svg10.dtd">
<svg xmlns="http://www.w3.org/2000/svg" style="display: none;">
  <symbol id="luffy" viewBox="0 0 24 24">
    <path d="M12 2a4 4 0 014 4v2h3.5a.5.5 0 01.5.5V10a1 1 0 01-1 1H4a1 1 0 01-1-1v-1.5a.5.5 0 01.5-.5H7V6a4 4 0 014-4zm2 6V6a2 2 0 00-4 0v2h4zm6 3v9a3 3 0 01-3 3H7a3 3 0 01-3-3v-9h16z"></path>
  </symbol>
</svg>


<g transform="translate(0.000000,210.000000) scale(0.100000,-0.100000)"
fill="#000000" stroke="none">
<path d="M274 2088 c-52 -11 -101 -60 -111 -112 -7 -34 -14 -41 -48 -53 -68
-23 -115 -84 -115 -150 0 -42 38 -110 74 -133 40 -24 114 -27 157 -5 l30 16
134 -127 c74 -70 132 -130 129 -135 -3 -5 -62 -7 -132 -5 -165 4 -192 -5 -192
-70 0 -57 19 -64 183 -64 l146 0 7 -37 c25 -150 110 -302 227 -410 l45 -42
-126 -117 c-70 -65 -146 -135 -168 -157 -41 -38 -42 -39 -72 -23 -43 22 -120
20 -160 -4 -102 -62 -95 -223 11 -274 19 -9 42 -16 50 -16 9 0 17 -14 21 -39
8 -51 59 -106 111 -120 57 -15 111 0 153 42 28 28 36 45 40 85 2 28 -1 65 -7
83 -11 32 -10 35 46 91 l57 58 23 -70 c39 -121 97 -190 198 -236 129 -59 323
-56 445 6 91 46 172 153 187 246 3 19 9 36 13 39 3 2 30 -20 60 -50 51 -51 52
-54 41 -86 -26 -75 -4 -144 62 -193 38 -28 125 -29 163 0 39 29 65 66 73 105
6 28 12 35 44 42 49 12 103 72 112 126 8 50 -23 123 -67 154 -38 28 -114 33
-159 10 l-35 -19 -167 156 -167 155 51 44 c106 93 204 257 230 386 l13 65 148
0 c135 0 150 2 168 20 24 24 26 72 4 94 -13 13 -42 16 -164 16 -104 0 -151 4
-156 12 -5 7 14 31 49 62 30 28 90 82 131 120 l76 68 34 -16 c65 -31 141 -14
188 42 70 83 25 229 -78 248 -26 5 -35 12 -40 33 -18 83 -64 130 -137 138
-117 13 -208 -104 -163 -211 19 -46 23 -40 -84 -136 l-77 -69 -42 52 c-136
167 -326 257 -541 257 -219 0 -430 -101 -540 -259 -19 -27 -38 -49 -42 -48 -4
1 -45 39 -92 85 l-85 83 15 34 c51 123 -49 240 -182 213z m103 -48 c61 -37 76
-114 34 -171 l-24 -32 24 -20 c13 -10 61 -55 107 -100 l83 -81 -26 -58 c-15
-32 -29 -74 -32 -93 -3 -19 -8 -35 -12 -35 -3 0 -66 57 -140 126 l-133 125
-23 -21 c-13 -12 -41 -24 -62 -27 -136 -18 -186 168 -63 232 16 8 40 15 55 15
23 0 25 4 25 41 0 35 6 48 39 80 32 32 46 39 77 39 22 0 53 -9 71 -20z m1758
6 c43 -18 75 -69 75 -118 0 -36 2 -38 30 -38 71 0 120 -51 120 -124 0 -105
-124 -160 -202 -90 -16 16 -24 11 -115 -74 -54 -49 -111 -104 -127 -121 -17
-17 -33 -31 -37 -31 -3 0 -9 17 -13 38 -3 20 -19 63 -34 95 l-29 57 104 96
103 96 -20 28 c-44 62 -17 155 54 186 40 17 49 17 91 0z m-729 -130 c44 -14
107 -43 140 -64 66 -43 177 -159 212 -221 l23 -41 -576 0 -576 0 27 49 c57
107 188 220 304 265 135 53 303 58 446 12z m768 -572 c20 -19 20 -38 2 -53
-10 -8 -272 -10 -972 -9 l-959 3 -3 28 c-3 21 2 29 20 36 13 6 408 10 960 10
839 1 938 -1 952 -15z m-334 -117 c0 -31 -35 -128 -73 -202 -79 -155 -227
-271 -395 -312 -91 -21 -267 -21 -352 2 -202 53 -358 206 -425 418 -14 43 -25
85 -25 93 0 12 87 14 635 14 519 0 635 -2 635 -13z m-900 -524 c25 -9 48 -19
53 -22 7 -7 -8 -109 -17 -118 -5 -5 -126 54 -140 67 -5 5 -2 28 9 55 13 36 21
45 34 40 9 -4 36 -14 61 -22z m615 -43 l14 -40 -41 -21 c-23 -12 -58 -27 -79
-34 -43 -16 -43 -16 -54 66 l-7 46 54 18 c29 9 60 21 68 25 17 10 23 1 45 -60z
m-743 43 c-18 -34 -42 -163 -42 -224 l0 -62 -84 -79 -85 -79 21 -35 c67 -113
-80 -243 -181 -159 -34 29 -55 82 -46 118 6 22 4 24 -18 20 -61 -12 -137 56
-137 122 0 63 63 125 128 125 16 0 46 -11 67 -25 l37 -26 121 114 c154 144
221 206 225 207 1 0 -1 -8 -6 -17z m954 -160 c157 -149 162 -152 179 -133 65
72 189 30 202 -70 11 -77 -46 -140 -124 -140 -27 0 -29 -3 -25 -29 5 -39 -24
-99 -59 -116 -48 -25 -103 -19 -143 16 -48 41 -57 89 -27 143 l22 40 -81 81
c-69 70 -80 85 -80 115 0 53 -19 158 -39 217 -22 65 -33 73 175 -124z m-598
111 c20 -4 22 -10 22 -70 l0 -67 -52 7 c-29 4 -70 12 -91 17 -42 11 -40 2 -21
99 6 30 6 30 62 24 31 -3 67 -7 80 -10z m199 -46 c9 -72 11 -71 -94 -84 l-54
-6 3 68 3 69 55 6 c30 3 60 6 67 7 7 1 15 -23 20 -60z m-398 -84 c2 -2 0 -28
-3 -58 l-7 -56 -52 26 c-88 45 -105 60 -100 91 12 80 5 77 86 36 39 -19 74
-37 76 -39z m616 22 c11 -58 4 -69 -75 -109 -84 -43 -84 -43 -91 42 l-4 43 75
28 c41 16 78 29 82 29 4 1 10 -14 13 -33z m-457 -51 l62 -7 0 -65 0 -65 -56 7
c-30 3 -74 12 -97 19 l-42 12 3 50 c4 70 6 74 40 65 16 -5 56 -12 90 -16z
m257 -22 c3 -21 8 -48 11 -60 3 -19 -2 -24 -33 -32 -21 -5 -62 -12 -90 -16
l-53 -7 0 65 0 65 63 10 c99 15 95 16 102 -25z m-482 -72 c116 -56 204 -74
332 -68 117 6 192 24 294 72 l74 35 -7 -55 c-18 -158 -95 -261 -231 -311 -70
-25 -250 -26 -321 -1 -110 38 -174 100 -215 206 -21 57 -38 176 -23 169 5 -2
48 -23 97 -47z"/>
<path d="M815 1723 c-44 -57 -57 -93 -32 -93 6 1 30 25 51 55 22 30 43 55 48
55 4 0 8 9 8 20 0 36 -29 21 -75 -37z"/>
<path d="M1550 1750 c-12 -8 -11 -13 7 -32 12 -13 31 -45 43 -71 12 -26 25
-47 31 -47 20 0 20 31 0 73 -28 57 -61 89 -81 77z"/>
<path d="M907 1691 c-33 -49 -37 -74 -14 -79 9 -2 17 2 17 8 0 6 13 31 30 54
16 24 26 46 23 50 -14 14 -32 4 -56 -33z"/>
<path d="M1448 1705 c-9 -10 26 -95 39 -95 16 0 17 27 2 69 -10 28 -27 39 -41
26z"/>
<path d="M995 1670 c-14 -28 -14 -31 0 -36 18 -7 44 21 45 49 0 28 -28 20 -45
-13z"/>
<path d="M899 1201 c-97 -31 -148 -145 -103 -234 54 -106 152 -137 245 -78 84
53 107 157 52 234 -44 63 -131 98 -194 78z"/>
<path d="M1369 1177 c-18 -12 -44 -38 -57 -57 -20 -30 -23 -45 -20 -96 5 -77
37 -124 103 -149 122 -47 234 33 235 166 0 54 -28 101 -79 136 -47 32 -135 32
-182 0z"/>
<path d="M1157 842 c-34 -38 -10 -76 48 -76 41 0 65 19 65 50 0 43 -81 61
-113 26z"/>
</g>
</svg>
