<?xml version="1.0" standalone="no"?>
<!DOCTYPE svg PUBLIC "-//W3C//DTD SVG 20010904//EN"
 "http://www.w3.org/TR/2001/REC-SVG-20010904/DTD/svg10.dtd">
<svg version="1.0" xmlns="http://www.w3.org/2000/svg"
 width="225.000000pt" height="225.000000pt" viewBox="0 0 225.000000 225.000000"
 preserveAspectRatio="xMidYMid meet">

<g transform="translate(0.000000,225.000000) scale(0.100000,-0.100000)"
fill="#000000" stroke="none">
<path d="M1183 1818 c-21 -7 -37 -21 -45 -39 -9 -20 -21 -29 -38 -30 -24 -2
-24 -2 -2 -6 18 -4 22 -10 20 -34 -2 -26 -18 -43 -18 -19 0 12 -63 1 -68 -12
-11 -27 -57 -68 -76 -68 -54 0 -65 73 -16 113 38 32 38 37 -1 37 -73 0 -139
-62 -139 -130 0 -19 13 -57 30 -87 37 -65 37 -76 3 -108 -33 -30 -44 -31 -66
-7 -21 23 -22 46 -1 66 14 15 14 17 0 22 -55 21 -102 -42 -93 -124 6 -55 30
-88 93 -128 98 -63 107 -74 112 -143 l5 -63 -69 7 c-93 9 -167 30 -189 55 -10
11 -13 20 -7 20 18 0 42 56 42 97 0 21 -9 58 -20 82 -19 41 -21 43 -34 25 -12
-16 -18 -16 -40 -6 -31 14 -66 68 -66 102 0 14 7 36 16 48 23 33 13 36 -27 9
-28 -19 -34 -29 -33 -58 1 -18 8 -53 15 -76 22 -72 -21 -122 -66 -76 -12 11
-16 28 -13 55 2 21 0 38 -4 38 -4 0 -25 -17 -47 -38 -56 -53 -60 -79 -23 -160
33 -73 52 -134 52 -169 0 -27 -33 -47 -61 -38 -16 6 -20 13 -17 35 10 64 -36
-10 -47 -77 -5 -35 -2 -51 21 -93 15 -28 45 -67 66 -86 32 -28 46 -34 86 -34
26 -1 65 -7 87 -15 69 -25 86 -20 147 43 31 31 61 68 68 80 15 30 7 63 -19 79
-17 11 -20 9 -25 -21 -9 -48 -39 -72 -74 -60 -17 6 -28 18 -30 33 -4 25 23
106 43 131 15 18 9 40 -11 40 -43 0 -199 93 -188 112 3 4 40 8 83 8 73 0 80
-2 109 -30 36 -34 106 -56 208 -65 l72 -7 4 65 c3 52 9 72 33 103 l30 39 6
-30 c4 -18 7 4 8 58 l1 87 180 0 180 0 1 -27 c3 -57 7 -71 29 -101 26 -35 50
-48 50 -28 0 19 34 47 98 81 75 40 102 81 102 155 0 59 -18 97 -75 160 -12 14
-27 34 -33 45 -10 18 -11 17 -12 -10 0 -16 9 -43 20 -60 25 -38 26 -96 2 -118
-40 -36 -78 -9 -69 48 l6 35 -30 -22 c-47 -35 -68 3 -43 76 22 62 18 80 -21
99 -33 16 -35 16 -45 -2 -14 -28 -40 -33 -67 -15 -22 14 -24 21 -21 62 3 26 8
55 12 65 9 20 -1 21 -51 5z m-53 -179 c0 -27 -19 -43 -21 -16 0 8 -2 8 -6 -2
-5 -11 -7 -11 -14 0 -7 11 -9 10 -9 -4 0 -10 6 -20 13 -23 21 -8 16 -31 -9
-45 -48 -25 -71 16 -38 66 9 14 25 25 35 25 11 0 16 5 13 13 -2 7 4 13 16 14
16 1 20 -4 20 -28z"/>
<path d="M1747 1442 c-24 -26 -21 -37 18 -80 46 -52 56 -80 39 -114 -28 -54
-134 -59 -134 -6 1 26 16 49 45 67 17 10 13 11 -30 7 -69 -8 -88 -32 -83 -108
l3 -58 -77 -1 c-43 -1 -84 -2 -90 -3 -8 0 -16 -23 -20 -51 -4 -27 -9 -59 -10
-70 -3 -19 4 -20 105 -23 74 -2 107 1 102 8 -3 6 -12 7 -18 3 -7 -4 -5 2 3 12
9 11 10 16 3 11 -10 -5 -13 7 -13 48 0 53 1 56 25 56 22 0 24 -3 19 -30 -6
-28 -5 -30 22 -29 17 1 22 3 12 6 -20 5 -25 48 -7 58 5 4 20 4 32 1 20 -5 22
-10 19 -76 -3 -52 -7 -70 -18 -70 -10 0 -14 -13 -14 -48 0 -38 -5 -53 -23 -70
-47 -44 -94 -19 -84 46 l6 37 -29 -33 c-17 -18 -30 -36 -30 -41 0 -5 16 -28
35 -52 48 -56 58 -77 51 -104 -6 -25 18 -44 27 -21 10 26 65 24 130 -5 74 -34
114 -36 167 -9 43 22 70 63 70 108 0 34 -23 71 -34 54 -4 -7 -20 -12 -36 -12
-58 0 -46 63 21 112 34 25 59 75 59 117 0 33 -41 103 -48 81 -16 -52 -82 -78
-102 -41 -12 22 -5 44 25 86 31 43 34 57 20 92 -8 20 -37 46 -80 74 -56 36
-66 47 -62 66 5 28 5 28 -16 5z m-308 -368 c-1 -36 -5 -60 -9 -53 -7 15 -1
119 6 119 3 0 4 -30 3 -66z m59 -3 c3 -56 1 -62 -15 -59 -14 2 -19 14 -21 52
-4 56 3 79 21 74 7 -3 13 -28 15 -67z m68 1 c0 -50 -3 -60 -17 -59 -12 1 -16
13 -18 55 -2 57 4 75 22 69 7 -2 12 -28 13 -65z"/>
<path d="M1007 1333 c-4 -3 -7 -26 -7 -50 l0 -43 55 0 55 0 0 50 0 50 -48 0
c-27 0 -52 -3 -55 -7z"/>
<path d="M1190 1290 l0 -50 55 0 55 0 0 50 0 50 -55 0 -55 0 0 -50z"/>
<path d="M1331 1234 c0 -11 3 -14 6 -6 3 7 2 16 -1 19 -3 4 -6 -2 -5 -13z"/>
<path d="M1148 1203 c7 -3 16 -2 19 1 4 3 -2 6 -13 5 -11 0 -14 -3 -6 -6z"/>
<path d="M950 1099 c0 -23 18 -60 34 -71 21 -14 73 -8 89 10 10 10 17 33 17
50 l0 32 -70 0 c-64 0 -70 -2 -70 -21z"/>
<path d="M1210 1086 c0 -25 7 -39 22 -50 51 -36 118 -3 118 56 l0 28 -70 0
-70 0 0 -34z"/>
<path d="M1629 1049 c-7 -13 -7 -19 -1 -15 6 3 13 -4 15 -16 4 -20 4 -19 6 5
1 17 7 27 17 27 8 0 12 5 9 10 -10 17 -34 11 -46 -11z"/>
<path d="M1125 1010 c-4 -7 -3 -16 3 -22 14 -14 47 -6 47 12 0 18 -40 26 -50
10z"/>
<path d="M950 946 c0 -2 8 -10 18 -17 15 -13 16 -12 3 4 -13 16 -21 21 -21 13z"/>
<path d="M1329 933 c-13 -16 -12 -17 4 -4 16 13 21 21 13 21 -2 0 -10 -8 -17
-17z"/>
<path d="M1090 870 c0 -5 7 -7 15 -4 8 4 15 8 15 10 0 2 -7 4 -15 4 -8 0 -15
-4 -15 -10z"/>
<path d="M1188 873 c6 -2 18 -2 25 0 6 3 1 5 -13 5 -14 0 -19 -2 -12 -5z"/>
<path d="M1211 844 c0 -11 3 -14 6 -6 3 7 2 16 -1 19 -3 4 -6 -2 -5 -13z"/>
<path d="M1065 820 c-16 -7 -17 -9 -3 -9 9 -1 19 -7 21 -13 3 -7 6 -3 6 10 1
12 0 22 -1 21 -2 0 -12 -4 -23 -9z"/>
<path d="M1218 813 c6 -2 18 -2 25 0 6 3 1 5 -13 5 -14 0 -19 -2 -12 -5z"/>
<path d="M1148 803 c7 -3 16 -2 19 1 4 3 -2 6 -13 5 -11 0 -14 -3 -6 -6z"/>
<path d="M1220 756 c0 -8 -8 -17 -17 -19 -14 -4 -12 -5 5 -6 16 -1 22 5 22 19
0 11 -2 20 -5 20 -3 0 -5 -6 -5 -14z"/>
<path d="M1078 738 c5 -5 16 -8 23 -6 8 3 3 7 -10 11 -17 4 -21 3 -13 -5z"/>
<path d="M1148 603 c12 -2 32 -2 45 0 12 2 2 4 -23 4 -25 0 -35 -2 -22 -4z"/>
</g>
</svg>
