<?xml version="1.0" standalone="no"?>
<!DOCTYPE svg PUBLIC "-//W3C//DTD SVG 20010904//EN"
 "http://www.w3.org/TR/2001/REC-SVG-20010904/DTD/svg10.dtd">
<svg version="1.0" xmlns="http://www.w3.org/2000/svg"
 width="225.000000pt" height="224.000000pt" viewBox="0 0 225.000000 224.000000"
 preserveAspectRatio="xMidYMid meet">

<g transform="translate(0.000000,224.000000) scale(0.100000,-0.100000)"
fill="#000000" stroke="none">
<path d="M925 2215 c-82 -15 -212 -52 -219 -63 -8 -14 51 -137 65 -135 8 2 55
14 104 27 50 13 114 27 143 31 l52 7 0 -69 0 -68 -112 -22 c-198 -38 -373
-145 -483 -294 l-42 -57 -61 35 -62 35 33 46 c17 25 58 71 90 102 31 31 57 61
57 66 -1 5 -21 31 -47 59 l-45 49 -74 -77 c-132 -137 -232 -313 -280 -492 -13
-49 -24 -95 -24 -101 0 -6 24 -15 53 -18 28 -4 61 -9 73 -12 19 -5 22 1 33 57
15 76 60 199 72 199 5 0 34 -14 65 -31 41 -24 54 -36 49 -48 -80 -194 -89
-401 -27 -587 l28 -83 -58 -31 -58 -31 -21 48 c-12 26 -30 86 -42 131 l-21 84
-55 -7 c-104 -12 -101 -6 -71 -124 50 -198 181 -419 322 -547 l41 -37 48 54
c27 30 49 56 49 59 0 3 -23 30 -51 60 -53 56 -129 152 -129 163 0 3 25 20 56
37 l56 32 31 -38 c156 -191 321 -291 539 -327 l73 -13 0 -64 0 -65 -55 4 c-30
2 -93 14 -140 28 -47 14 -91 26 -99 27 -8 0 -26 -26 -42 -62 l-28 -63 42 -18
c81 -35 189 -54 337 -59 161 -5 263 9 403 55 88 29 87 26 46 117 -15 36 -25
46 -37 42 -98 -32 -191 -56 -241 -62 l-61 -7 0 66 0 66 38 6 c241 39 406 134
543 311 l41 53 59 -29 c32 -17 59 -33 59 -36 0 -12 -57 -82 -114 -141 l-59
-62 47 -55 c26 -31 52 -56 56 -56 5 0 43 39 85 86 121 139 198 279 249 458 39
133 41 129 -65 141 l-56 7 -16 -69 c-18 -80 -55 -183 -66 -183 -4 0 -33 14
-63 30 l-56 31 23 57 c37 92 48 170 43 310 -4 106 -10 141 -35 215 l-29 87 20
14 c12 7 40 23 62 34 l42 21 22 -50 c11 -28 29 -84 38 -126 l17 -75 50 7 c98
12 98 12 90 63 -9 58 -59 200 -98 277 -45 90 -116 191 -191 272 l-67 73 -50
-57 c-27 -31 -49 -59 -49 -62 0 -3 16 -22 36 -41 41 -39 92 -101 118 -141 l17
-27 -58 -32 -58 -33 -20 29 c-44 65 -192 202 -255 237 -104 58 -208 95 -287
103 l-73 7 0 68 c0 67 1 69 25 69 43 0 175 -30 243 -56 l63 -24 30 67 c35 77
38 72 -72 107 -171 55 -390 71 -554 41z m367 -444 c124 -32 212 -82 304 -175
120 -120 197 -276 206 -416 l3 -55 -679 -3 -679 -3 6 61 c19 174 117 356 249
461 69 54 196 116 278 133 95 21 223 19 312 -3z m-24 -1048 l2 -272 -46 -7
c-44 -6 -201 0 -209 8 -3 3 -7 401 -5 525 0 21 3 22 128 20 l127 -2 3 -272z
m287 74 c0 -110 -2 -202 -5 -207 -8 -12 -113 -77 -137 -84 l-23 -7 0 244 c0
134 3 247 7 251 4 4 41 5 83 4 l75 -3 0 -198z m230 166 c-3 -21 -28 -81 -53
-133 l-47 -95 -3 119 c-1 66 0 126 2 133 4 8 24 13 57 13 l51 0 -7 -37z
m-1205 -110 c0 -127 -1 -136 -15 -115 -24 34 -72 141 -89 200 l-15 52 60 0 59
0 0 -137z m300 -113 c0 -137 -3 -250 -7 -250 -8 0 -123 66 -145 83 -16 13 -18
36 -18 216 l0 201 85 0 85 0 0 -250z"/>
<path d="M746 1575 c-78 -28 -126 -96 -126 -181 0 -122 113 -213 229 -184 185
46 204 291 29 365 -45 18 -81 19 -132 0z"/>
<path d="M1365 1576 c-139 -61 -139 -279 0 -346 87 -42 199 -6 249 80 48 81
13 207 -70 256 -47 27 -129 32 -179 10z"/>
<path d="M1085 1276 c-11 -8 -18 -26 -18 -46 0 -38 23 -60 63 -60 40 0 63 22
63 60 0 38 -23 60 -63 60 -14 0 -35 -6 -45 -14z"/>
</g>
</svg>
